<?xml version="1.0" encoding="UTF-8"?>
<svg width="1200pt" height="1200pt" version="1.1" viewBox="0 0 1200 1200" xmlns="http://www.w3.org/2000/svg">
 <path d="m192 252c-39.766 0-72 32.234-72 72 0 39.762 32.234 72 72 72h816c39.766 0 72-32.238 72-72 0-39.766-32.234-72-72-72zm0 276c-39.766 0-72 32.234-72 72 0 39.762 32.234 72 72 72h816c39.766 0 72-32.238 72-72 0-39.766-32.234-72-72-72zm0 276c-39.766 0-72 32.234-72 72 0 39.762 32.234 72 72 72h816c39.766 0 72-32.238 72-72 0-39.766-32.234-72-72-72z" fill="#89c04b"/>
</svg>
